<svg width="203" height="167" viewBox="0 0 203 167" fill="none" xmlns="http://www.w3.org/2000/svg">
<path d="M143.768 68.9761L138.933 14.7393H192.067L187.227 68.9676L165.467 75L143.768 68.9761Z" fill="#E44D26"/>
<path d="M165.5 70.3891L183.083 65.5145L187.219 19.1739H165.5V70.3891Z" fill="#F16529"/>
<path d="M165.5 39.2896H156.698L156.09 32.4779H165.5V25.8259H165.477H148.82L148.979 27.6105L150.614 45.9415H165.5V39.2896Z" fill="#EBEBEB"/>
<path d="M165.5 56.5654L165.471 56.5731L158.063 54.5728L157.589 49.2675H153.989H150.911L151.843 59.712L165.469 63.4947L165.5 63.4862V56.5654Z" fill="#EBEBEB"/>
<path d="M143.876 0H147.257V3.33984H150.349V0H153.73V10.1139H150.349V6.72715H147.257V10.1139H143.876L143.876 0Z" fill="black"/>
<path d="M158.175 3.35391H155.199V0H164.533V3.35391H161.556V10.1139H158.175L158.175 3.35391Z" fill="black"/>
<path d="M166.014 0H169.539L171.707 3.55371L173.873 0H177.4V10.1139H174.033V5.10088L171.707 8.69692H171.649L169.322 5.10088V10.1139H166.014V0Z" fill="black"/>
<path d="M179.082 0H182.463V6.7708H187.217V10.1139H179.082V0Z" fill="black"/>
<path d="M165.477 39.2896V45.9415H173.668L172.896 54.5685L165.477 56.5709V63.4915L179.114 59.712L179.214 58.5882L180.777 41.0758L180.939 39.2896H179.147H165.477Z" fill="white"/>
<path d="M165.477 25.8259V29.9574V32.4617V32.4779H181.523H181.545L181.678 30.9828L181.981 27.6105L182.14 25.8259H165.477Z" fill="white"/>
<path d="M7.95745 29.9281C7.7521 29.9281 7.70076 29.8254 7.80344 29.6714L8.88154 28.2853C8.98422 28.1313 9.24091 28.0286 9.44626 28.0286H27.7741C27.9794 28.0286 28.0307 28.1826 27.9281 28.3366L27.0553 29.6714C26.9526 29.8254 26.6959 29.9795 26.5419 29.9795L7.95745 29.9281Z" fill="#00ACD7"/>
<path d="M0.205354 34.6512C4.28401e-07 34.6512 -0.0513385 34.5486 0.0513382 34.3946L1.12944 33.0084C1.23212 32.8544 1.48881 32.7517 1.69417 32.7517H25.1045C25.3098 32.7517 25.4125 32.9057 25.3611 33.0598L24.9504 34.2919C24.8991 34.4972 24.6937 34.5999 24.4884 34.5999L0.205354 34.6512Z" fill="#00ACD7"/>
<path d="M12.6292 39.3744C12.4239 39.3744 12.3725 39.2204 12.4752 39.0663L13.194 37.7829C13.2966 37.6289 13.502 37.4749 13.7073 37.4749H23.975C24.1804 37.4749 24.283 37.6289 24.283 37.8342L24.1804 39.0663C24.1804 39.2717 23.975 39.4257 23.821 39.4257L12.6292 39.3744Z" fill="#00ACD7"/>
<path d="M65.9184 29.004C62.6841 29.8254 60.4766 30.4415 57.2936 31.2629C56.5235 31.4683 56.4722 31.5196 55.8048 30.7495C55.0347 29.8768 54.47 29.3121 53.3919 28.7987C50.1576 27.2072 47.0259 27.6692 44.0996 29.5688C40.6086 31.8276 38.8118 35.1646 38.8631 39.323C38.9145 43.4301 41.7381 46.8184 45.7938 47.3832C49.2848 47.8452 52.2111 46.6131 54.5213 43.9948C54.9834 43.4301 55.3941 42.814 55.9075 42.0953C54.0593 42.0953 51.749 42.0953 45.9992 42.0953C44.921 42.0953 44.6644 41.4279 45.0237 40.5552C45.6911 38.9637 46.9232 36.2941 47.642 34.9593C47.796 34.6512 48.1554 34.1379 48.9254 34.1379C51.5437 34.1379 61.1953 34.1379 67.6126 34.1379C67.5099 35.524 67.5099 36.9101 67.3046 38.2963C66.7398 41.9926 65.3537 45.381 63.0948 48.3586C59.3985 53.2357 54.5727 56.2647 48.4634 57.0861C43.4322 57.7535 38.7604 56.7781 34.6534 53.6978C30.8543 50.8228 28.6981 47.0238 28.1334 42.3007C27.466 36.7048 29.1088 31.6736 32.4972 27.2585C36.1422 22.4841 40.968 19.4551 46.8719 18.377C51.6977 17.5042 56.3182 18.069 60.4766 20.8926C63.1975 22.6894 65.1484 25.1537 66.4318 28.1313C66.7398 28.5933 66.5345 28.85 65.9184 29.004Z" fill="#00ACD7"/>
<path d="M82.9114 57.3941C78.2396 57.2915 73.9786 55.9567 70.3849 52.8764C67.3559 50.2581 65.4564 46.9211 64.8403 42.9681C63.9162 37.1668 65.5077 32.033 68.9987 27.4639C72.7464 22.5354 77.2642 19.9685 83.3735 18.8904C88.61 17.9663 93.5385 18.4797 98.0049 21.5086C102.061 24.2809 104.576 28.0286 105.244 32.9571C106.116 39.8878 104.114 45.535 99.3397 50.3608C95.9514 53.8005 91.793 55.9567 87.0185 56.9321C85.6324 57.1888 84.2462 57.2401 82.9114 57.3941ZM95.13 36.6534C95.0786 35.986 95.0786 35.4727 94.9759 34.9593C94.0519 29.8768 89.3801 27.0018 84.5029 28.1313C79.7285 29.2094 76.6482 32.2383 75.5187 37.0642C74.5946 41.0685 76.5455 45.1243 80.2418 46.7671C83.0654 47.9992 85.8891 47.8452 88.61 46.4591C92.6657 44.3542 94.8733 41.0685 95.13 36.6534Z" fill="#00ACD7"/>
<path d="M21 102V167H86V102H21ZM55.8214 152.491C55.8214 158.818 52.0839 161.903 46.6735 161.903C41.7869 161.903 38.9504 159.373 37.5112 156.319L42.4848 153.308C43.4439 155.01 44.1722 156.449 46.2658 156.449C48.0069 156.449 49.4375 155.664 49.4375 152.61V132.179H55.8214V152.491ZM70.236 161.758C64.5645 161.758 60.8996 159.199 59.1106 155.664L64.0915 152.781C65.3973 154.92 67.1021 156.345 70.1127 156.345C72.6431 156.345 74.1128 155.225 74.1128 153.479C74.1128 151.385 72.5996 150.644 69.8066 149.417L68.2802 148.761C63.8724 146.886 60.9503 144.53 60.9503 139.555C60.9503 134.974 64.4397 131.629 69.8936 131.629C73.7777 131.629 76.5677 132.836 78.5772 136.37L73.8125 139.433C72.765 137.557 71.6362 136.821 69.8864 136.821C68.0974 136.821 66.9628 137.956 66.9628 139.433C66.9628 141.266 68.0974 142.007 70.7148 143.142L72.2412 143.796C77.4339 146.022 80.3575 148.294 80.3575 153.395C80.3589 158.894 76.0396 161.758 70.236 161.758Z" fill="#FFBD3E"/>
<g clip-path="url(#clip0_12_73)">
<path d="M193 105.132L188.08 160.807L165.967 167L143.914 160.815L139 105.132H193Z" fill="#264DE4"/>
<path d="M183.869 157.262L188.073 109.685H166V162.266L183.869 157.262Z" fill="#2965F1"/>
<path d="M150.266 130.337L150.872 137.167H166V130.337H150.266Z" fill="#EBEBEB"/>
<path d="M166 116.515H165.977H149.049L149.663 123.344H166V116.515Z" fill="#EBEBEB"/>
<path d="M166 155.179V148.074L165.97 148.082L158.441 146.028L157.96 140.581H154.302H151.174L152.121 151.304L165.969 155.188L166 155.179Z" fill="#EBEBEB"/>
<path d="M151.709 90H159.896V93.459H155.133V96.918H159.896V100.377H151.709V90Z" fill="black"/>
<path d="M161.534 90H169.722V93.0078H164.958V93.6094H169.722V100.527H161.534V97.3691H166.298V96.7676H161.534V90Z" fill="black"/>
<path d="M171.359 90H179.547V93.0078H174.783V93.6094H179.547V100.527H171.359V97.3691H176.123V96.7676H171.359V90Z" fill="black"/>
<path d="M174.301 137.167L173.516 146.024L165.977 148.08V155.185L179.835 151.304L179.937 150.151L181.526 132.171L181.691 130.337L182.911 116.515H165.977V123.344H175.502L174.887 130.337H165.977V137.167H174.301Z" fill="white"/>
</g>
<defs>
<clipPath id="clip0_12_73">
<rect width="54" height="77" fill="white" transform="translate(139 90)"/>
</clipPath>
</defs>
</svg>
