<svg width="150" height="150" viewBox="0 0 150 150" fill="none" xmlns="http://www.w3.org/2000/svg">
<path d="M0 0H150V150H0V0Z" fill="#6495ED"/>
<path d="M129.542 57.5414C125.994 66.9715 121.258 73.5307 115.335 77.219C109.57 80.9498 102.718 81.7516 94.7797 79.6244C89.3813 78.1779 84.9314 76.0496 81.4299 73.2395C77.9285 70.4293 74.8297 67.3867 72.1336 64.1117C69.5962 60.8791 66.8944 57.9429 64.028 55.3029C61.1617 52.663 57.5851 50.7686 53.2981 49.6199C48.5348 48.3436 44.3781 48.9316 40.8281 51.3839C37.278 53.8362 34.2395 57.872 31.7128 63.4915L20.2809 60.4283C23.8287 50.9982 28.4849 44.4178 34.2495 40.6869C40.0141 36.9561 47.0246 36.1968 55.281 38.4091C60.5206 39.8131 64.8911 41.9201 68.3926 44.7302C71.894 47.5404 74.9928 50.583 77.6889 53.8581C80.3851 57.1331 83.1663 60.0906 86.0326 62.7306C88.8989 65.3706 92.4756 67.2649 96.7625 68.4136C101.526 69.6899 105.603 69.0807 108.994 66.5858C112.545 64.1336 115.662 60.119 118.348 54.542L129.542 57.5414Z" fill="white"/>
<path d="M129.9 89.5455C126.353 98.9756 121.617 105.535 115.694 109.223C109.929 112.954 103.077 113.756 95.1384 111.629C89.74 110.182 85.2901 108.054 81.7887 105.244C78.2873 102.433 75.1885 99.3909 72.4923 96.1158C69.955 92.8833 67.2531 89.947 64.3868 87.3071C61.5205 84.6671 57.9438 82.7728 53.6569 81.6241C48.8936 80.3478 44.7369 80.9357 41.1868 83.388C37.6367 85.8403 34.5983 89.8762 32.0715 95.4956L20.6396 92.4325C24.1875 83.0024 28.8437 76.4219 34.6083 72.6911C40.3729 68.9602 47.3834 68.201 55.6398 70.4132C60.8794 71.8172 65.2499 73.9242 68.7513 76.7344C72.2528 79.5445 75.3515 82.5871 78.0477 85.8622C80.7438 89.1373 83.5251 92.0948 86.3914 94.7348C89.2577 97.3747 92.8343 99.269 97.1213 100.418C101.885 101.694 105.962 101.085 109.353 98.59C112.903 96.1377 116.021 92.1231 118.707 86.5462L129.9 89.5455Z" fill="white"/>
</svg>
