<svg width="620" height="619" viewBox="0 0 620 619" fill="none" xmlns="http://www.w3.org/2000/svg">
<path fill-rule="evenodd" clip-rule="evenodd" d="M620 318.043V-1H9.2088e-08L0 47.0215C10.0498 59.1552 20.3797 70.4637 30.9896 80.947C55.3686 102.746 81.4342 121.632 109.186 137.606C160.309 167.031 215.226 189.904 273.939 206.224L452.605 250.815C511.854 265.602 567.652 288.011 620 318.043ZM3.05478e-08 299.011L9.2088e-08 619H620V566.119C611.396 556.077 602.345 546.809 592.845 538.314C568.466 516.516 541.67 497.209 512.457 480.394C461.334 450.969 405.995 428.824 346.44 413.96L167.773 369.369C109.061 353.049 53.4133 329.756 0.830105 299.49C0.552881 299.33 0.27618 299.171 3.05478e-08 299.011Z" fill="#6495ED"/>
</svg>
